<svg xmlns="http://www.w3.org/2000/svg" width="81.81" height="71.587" viewBox="0 0 81.81 71.587">
  <path id="react-brands" d="M66.822,55.211q-1.294-.431-2.589-.815c.144-.591.272-1.182.4-1.774,1.965-9.523.671-17.177-3.691-19.7-4.2-2.413-11.057.1-17.992,6.136-.687.591-1.358,1.214-2,1.838-.431-.415-.879-.831-1.326-1.23-7.27-6.455-14.556-9.172-18.918-6.631-4.186,2.429-5.433,9.635-3.675,18.647.176.895.368,1.774.591,2.668-1.023.288-2.029.607-2.972.943C6.12,58.247,0,62.913,0,67.738c0,4.985,6.519,9.987,15.387,13.022.719.24,1.438.479,2.173.687-.24.959-.447,1.9-.639,2.876-1.678,8.868-.368,15.9,3.819,18.311,4.314,2.493,11.568-.064,18.631-6.248.559-.5,1.118-1.007,1.678-1.55.7.687,1.438,1.342,2.173,1.981,6.839,5.88,13.6,8.261,17.768,5.848,4.314-2.493,5.72-10.05,3.9-19.254q-.216-1.055-.479-2.157c.511-.144,1.007-.3,1.5-.463,9.22-3.052,15.9-7.989,15.9-13.054C81.81,62.9,75.514,58.2,66.822,55.211ZM45.2,41.645c5.944-5.177,11.488-7.206,14.013-5.752,2.7,1.55,3.739,7.813,2.045,16.042-.112.543-.224,1.071-.368,1.6A81.8,81.8,0,0,0,50.14,51.84a80.73,80.73,0,0,0-6.807-8.485C43.957,42.764,44.564,42.2,45.2,41.645ZM26.716,76.031c.815,1.39,1.646,2.78,2.525,4.138a72.353,72.353,0,0,1-7.414-1.2,74.643,74.643,0,0,1,2.6-7.11C25.166,73.267,25.917,74.657,26.716,76.031ZM21.874,56.809c2.3-.511,4.746-.927,7.286-1.246-.847,1.326-1.678,2.684-2.461,4.059-.783,1.358-1.55,2.748-2.269,4.154-1.007-2.381-1.853-4.714-2.557-6.967Zm4.378,11.009c1.055-2.205,2.205-4.362,3.419-6.487s2.525-4.186,3.9-6.216c2.4-.176,4.841-.272,7.334-.272s4.953.1,7.334.272q2.037,3.02,3.883,6.184t3.467,6.455q-1.606,3.308-3.451,6.519c-1.214,2.125-2.509,4.186-3.867,6.232-2.381.176-4.857.256-7.366.256s-4.937-.08-7.286-.224q-2.085-3.044-3.931-6.232c-1.23-2.125-2.365-4.282-3.435-6.487ZM55.11,76c.815-1.406,1.582-2.828,2.333-4.266a74.174,74.174,0,0,1,2.7,7.078,70.18,70.18,0,0,1-7.51,1.278C53.5,78.747,54.311,77.373,55.11,76Zm2.3-12.224c-.751-1.406-1.518-2.812-2.317-4.186q-1.174-2.037-2.445-4.027a73.526,73.526,0,0,1,7.334,1.278A70.713,70.713,0,0,1,57.411,63.776ZM40.937,45.8a70.165,70.165,0,0,1,4.73,5.72c-3.164-.144-6.343-.144-9.507,0C37.725,49.459,39.339,47.542,40.937,45.8ZM22.4,36.005c2.684-1.566,8.644.671,14.924,6.232.4.352.8.735,1.214,1.118a81.178,81.178,0,0,0-6.855,8.485A84.227,84.227,0,0,0,20.948,53.5c-.208-.815-.383-1.646-.559-2.477-1.5-7.734-.511-13.566,2.013-15.02ZM18.487,78.124c-.671-.192-1.326-.4-1.981-.623A32.588,32.588,0,0,1,6.439,72.516a7.17,7.17,0,0,1-3-4.778c0-2.924,5.049-6.663,12.335-9.2.911-.32,1.838-.607,2.764-.879A84.964,84.964,0,0,0,22.45,67.818,87.342,87.342,0,0,0,18.487,78.124ZM37.118,93.783a29.245,29.245,0,0,1-9.012,5.64,7.072,7.072,0,0,1-5.64.208c-2.541-1.47-3.6-7.11-2.157-14.7.176-.895.368-1.79.591-2.668a79.934,79.934,0,0,0,10.849,1.566,84.322,84.322,0,0,0,6.9,8.532c-.511.5-1.023.975-1.534,1.422ZM41.033,89.9c-1.63-1.758-3.26-3.707-4.841-5.8,1.534.064,3.116.1,4.714.1,1.646,0,3.26-.032,4.857-.112A68.909,68.909,0,0,1,41.033,89.9Zm20.884,4.794a7.1,7.1,0,0,1-2.636,5c-2.541,1.47-7.957-.447-13.805-5.465-.671-.575-1.342-1.2-2.029-1.838a79.045,79.045,0,0,0,6.743-8.564,78.768,78.768,0,0,0,10.9-1.678c.16.655.3,1.31.431,1.949a29.128,29.128,0,0,1,.4,10.594Zm2.908-17.177c-.447.144-.895.288-1.358.415a81.171,81.171,0,0,0-4.075-10.194,80.765,80.765,0,0,0,3.915-10.05c.831.24,1.63.5,2.4.751C73.149,61,78.374,64.8,78.374,67.706,78.374,70.838,72.8,74.881,64.825,77.517ZM40.9,75.12A7.318,7.318,0,1,0,33.587,67.8,7.317,7.317,0,0,0,40.9,75.12Z" transform="translate(0 -32.012)" fill="#ffc400"/>
</svg>
